<svg width="62" height="40" fill="none" xmlns="http://www.w3.org/2000/svg"><path fill="#F1F3F4" d="M0 0h62v40H0z"/><path d="M29.904 32.297h-9.226V11.229l4.242-4.005h15.616v13.929M27.883 34.56l14.762-15.584M34.5 32.297h6.036v-6.592" stroke="#DADCE0" stroke-width="1.5" stroke-miterlimit="10" stroke-linecap="round" stroke-linejoin="round"/><path d="M24.96 7.224v4.03h-4.282M20.678 23.678l3.954-3.744 3.603 2.525L35 15.146l5.535 4.962M27.31 17.296a1.837 1.837 0 001.845-1.828c0-1.01-.826-1.828-1.845-1.828-1.019 0-1.845.818-1.845 1.828 0 1.01.826 1.828 1.845 1.828z" stroke="#DADCE0" stroke-width="1.5" stroke-miterlimit="10" stroke-linecap="round" stroke-linejoin="round"/></svg>